<svg xmlns="http://www.w3.org/2000/svg" width="20.823" height="20.82" viewBox="0 0 20.823 20.82">
  <path id="Icon_awesome-upload" data-name="Icon awesome-upload" d="M12.038,15.62H8.785a.974.974,0,0,1-.976-.976V7.811H4.242a.812.812,0,0,1-.573-1.387L9.854.234a.788.788,0,0,1,1.11,0l6.19,6.19a.812.812,0,0,1-.573,1.387H13.015v6.833A.974.974,0,0,1,12.038,15.62Zm8.785-.325v4.555a.974.974,0,0,1-.976.976H.976A.974.974,0,0,1,0,19.849V15.294a.974.974,0,0,1,.976-.976H6.507v.325a2.279,2.279,0,0,0,2.278,2.278h3.254a2.279,2.279,0,0,0,2.278-2.278v-.325h5.531A.974.974,0,0,1,20.823,15.294ZM15.78,18.873a.813.813,0,1,0-.813.813A.816.816,0,0,0,15.78,18.873Zm2.6,0a.813.813,0,1,0-.813.813A.816.816,0,0,0,18.383,18.873Z" transform="translate(0 -0.005)" fill="#6d6f71"/>
</svg>
