<svg xmlns="http://www.w3.org/2000/svg" width="252.907" height="317.727" viewBox="0 0 252.907 317.727">
  <g id="Warranty" transform="translate(124.917 188.074)">
    <g id="Group_138" data-name="Group 138" transform="translate(-124.917 -124.917)">
      <circle id="Ellipse_6" data-name="Ellipse 6" cx="123.92" cy="123.92" r="123.92" transform="translate(0.998 0.997)" fill="#fff"/>
      <path id="Path_104" data-name="Path 104" d="M124.917,280.051A124.917,124.917,0,1,1,249.834,155.134,125.059,125.059,0,0,1,124.917,280.051Zm0-239.86A114.943,114.943,0,1,0,239.86,155.134,115.074,115.074,0,0,0,124.917,40.191Z" transform="translate(0 -30.217)" fill="#313133"/>
      <circle id="Ellipse_7" data-name="Ellipse 7" cx="84.022" cy="84.022" r="84.022" transform="translate(40.895 40.895)" fill="#5a5b5e" stroke="#313133" stroke-width="9.974"/>
      <g id="Group_137" data-name="Group 137" transform="translate(13.821 123.672)">
        <path id="Path_105" data-name="Path 105" d="M24.5,107.238l-12.382,5.526q3.269,1,6.5,2t6.5,2.013l.17,2.637L9.272,120.435l-.143-2.208,11.409-.725-11.68-3.451-.123-1.935,11.166-5-11.444.726-.143-2.218,16.017-1.019Z" transform="translate(-8.314 -104.611)" fill="#1a1818"/>
        <path id="Path_106" data-name="Path 106" d="M26.661,120.578l-14.393,9.193-.512-2.3,4.284-2.721-1.365-6.109-5.037-.657-.517-2.312,16.948,2.263Zm-2.869-.778-7.067-.888L17.77,123.6Z" transform="translate(-7.779 -97.286)" fill="#1a1818"/>
        <path id="Path_107" data-name="Path 107" d="M27.457,124.7l-9.225,11.509L30.109,131.7l.783,2.068-15,5.7-.944-2.494,9.236-11.512-11.886,4.512-.785-2.068,15.006-5.694Z" transform="translate(-6.198 -92.956)" fill="#1a1818"/>
        <path id="Path_108" data-name="Path 108" d="M29.5,131.8l-9.378,5.188a3.8,3.8,0,0,0-1.257,1.071,3.712,3.712,0,0,0-.63,1.333,3.886,3.886,0,0,0-.076,1.411,3.61,3.61,0,0,0,.417,1.292,4.367,4.367,0,0,0,.9,1.137,3.8,3.8,0,0,0,1.227.758,3.607,3.607,0,0,0,1.47.219,3.736,3.736,0,0,0,1.611-.5l9.417-5.21,1.077,1.947-9.321,5.157a6.126,6.126,0,0,1-2.415.788,5.106,5.106,0,0,1-2.206-.268,5.482,5.482,0,0,1-1.9-1.179,7.783,7.783,0,0,1-1.5-1.947,6.931,6.931,0,0,1-.76-2.126,5.462,5.462,0,0,1,.04-2.186,5.279,5.279,0,0,1,.951-2.03A6.115,6.115,0,0,1,19.147,135l9.281-5.133Z" transform="translate(-3.168 -87.882)" fill="#1a1818"/>
        <path id="Path_109" data-name="Path 109" d="M39.009,145.5l-1.6,1.19-5.065-6.821-3.824,2.843,4.4,5.928-1.6,1.189-4.4-5.925-5.853,4.35-1.318-1.775L32.624,136.9Z" transform="translate(-0.742 -83.224)" fill="#1a1818"/>
        <path id="Path_110" data-name="Path 110" d="M41.9,146.618l-7.4,15.39-1.651-1.687,2.211-4.568-4.379-4.475-4.628,2.095L24.4,151.679l15.607-7Zm-2.851.849-6.475,2.964,3.355,3.431Z" transform="translate(2.339 -78.07)" fill="#1a1818"/>
        <path id="Path_111" data-name="Path 111" d="M37.356,154.986a9.14,9.14,0,0,0-1.45,2.648A6.418,6.418,0,0,0,35.561,160a4.531,4.531,0,0,0,.542,1.958,4.354,4.354,0,0,0,1.227,1.433,4.023,4.023,0,0,0,1.613.751,4.533,4.533,0,0,0,1.672.035,5.585,5.585,0,0,0,1.6-.524A6.358,6.358,0,0,0,43.6,162.7l1.805,1.357a9.488,9.488,0,0,1-2.125,1.461,7.394,7.394,0,0,1-2.339.731,6.389,6.389,0,0,1-2.42-.141,6.626,6.626,0,0,1-2.361-1.164,7.414,7.414,0,0,1-2.043-2.271,6.221,6.221,0,0,1-.8-2.746,7.889,7.889,0,0,1,.48-3.064,12.215,12.215,0,0,1,1.8-3.237,9.779,9.779,0,0,1,1.426-1.526,9.626,9.626,0,0,1,1.677-1.165,7.925,7.925,0,0,1,1.852-.722,7.014,7.014,0,0,1,1.948-.211,6.613,6.613,0,0,1,1.957.361,6.868,6.868,0,0,1,1.885,1.021,7.787,7.787,0,0,1,1.832,1.877,6.3,6.3,0,0,1,.916,2.1A6.534,6.534,0,0,1,49.2,157.6a9.554,9.554,0,0,1-.565,2.277l-1.85-1.39a5.358,5.358,0,0,0,.176-3.13,4.667,4.667,0,0,0-1.8-2.41,4.119,4.119,0,0,0-1.927-.808,5.009,5.009,0,0,0-2.1.148,6.612,6.612,0,0,0-2.035.987A7.773,7.773,0,0,0,37.356,154.986Z" transform="translate(8.236 -74.543)" fill="#1a1818"/>
        <path id="Path_112" data-name="Path 112" d="M57.175,159.817l-.943,1.759-4.527-2.429L45.07,171.534l-1.96-1.051L49.748,158.1l-4.538-2.434.943-1.76Z" transform="translate(14.735 -71.962)" fill="#1a1818"/>
        <path id="Path_113" data-name="Path 113" d="M56,158.532l-3.659,10.076a3.8,3.8,0,0,0-.241,1.632,3.7,3.7,0,0,0,.4,1.42,3.87,3.87,0,0,0,.871,1.114,3.559,3.559,0,0,0,1.162.7,4.417,4.417,0,0,0,1.425.268,3.859,3.859,0,0,0,1.425-.236,3.553,3.553,0,0,0,1.248-.8,3.713,3.713,0,0,0,.889-1.431l3.674-10.117,2.088.761-3.634,10.011a6.191,6.191,0,0,1-1.3,2.183,5.117,5.117,0,0,1-1.842,1.247,5.5,5.5,0,0,1-2.2.361,7.742,7.742,0,0,1-2.409-.484,6.965,6.965,0,0,1-1.97-1.1,5.508,5.508,0,0,1-1.408-1.672A5.3,5.3,0,0,1,49.9,170.3a6.1,6.1,0,0,1,.4-2.557l3.619-9.968Z" transform="translate(19.22 -69.395)" fill="#1a1818"/>
        <path id="Path_114" data-name="Path 114" d="M71.636,167.453a4.753,4.753,0,0,1-.9,1.938,4.48,4.48,0,0,1-1.721,1.345,2.5,2.5,0,0,1,.707.718,2.623,2.623,0,0,1,.346.848,3.4,3.4,0,0,1,.065.931,6.731,6.731,0,0,1-.133.958l-.487,2.307a3.207,3.207,0,0,0-.035,1.036,6.465,6.465,0,0,0,.234,1.14l-2.342-.5a2.522,2.522,0,0,1-.125-.555,3.791,3.791,0,0,1-.022-.56,4.8,4.8,0,0,1,.047-.512c.022-.161.045-.3.07-.421l.512-2.419a2.357,2.357,0,0,0,.028-.816,1.926,1.926,0,0,0-.293-.788,2.265,2.265,0,0,0-.672-.657,3.281,3.281,0,0,0-1.125-.436l-4.339-.919-1.383,6.537-2.163-.459,3.321-15.7,6.5,1.376a5.212,5.212,0,0,1,2,.846,4.806,4.806,0,0,1,1.3,1.383,4.717,4.717,0,0,1,.627,1.669A4.515,4.515,0,0,1,71.636,167.453Zm-9.777.735,4.339.919a2.665,2.665,0,0,0,1.076.012,2.732,2.732,0,0,0,.979-.389,2.817,2.817,0,0,0,.771-.735,2.717,2.717,0,0,0,.444-1.026,2.635,2.635,0,0,0,.013-1.081,2.577,2.577,0,0,0-1.134-1.666,3,3,0,0,0-1.027-.422l-4.341-.918Z" transform="translate(24.538 -67.608)" fill="#1a1818"/>
        <path id="Path_115" data-name="Path 115" d="M79.047,162.825l-.145,1.992-8.721-.627-.346,4.751,8.2.59-.145,1.99-8.2-.59-.386,5.295,9.107.655-.145,1.98-11.3-.813,1.165-16.007Z" transform="translate(30.537 -66.57)" fill="#1a1818"/>
        <path id="Path_116" data-name="Path 116" d="M87.141,166.627a4.779,4.779,0,0,1-.344,2.108,4.424,4.424,0,0,1-1.3,1.759,2.544,2.544,0,0,1,.873.5,2.657,2.657,0,0,1,.562.725,3.315,3.315,0,0,1,.309.878,6.566,6.566,0,0,1,.13.958l.148,2.354a3.312,3.312,0,0,0,.248,1.009,6.538,6.538,0,0,0,.53,1.034l-2.387.153a2.4,2.4,0,0,1-.269-.5,3.839,3.839,0,0,1-.173-.535c-.042-.176-.071-.346-.093-.505s-.037-.3-.045-.424l-.156-2.467a2.447,2.447,0,0,0-.191-.8,1.959,1.959,0,0,0-.492-.678,2.3,2.3,0,0,0-.825-.454,3.275,3.275,0,0,0-1.2-.115l-4.424.286.421,6.666-2.208.143-1.012-16.019,6.633-.427a5.216,5.216,0,0,1,2.154.278,4.786,4.786,0,0,1,1.624.981,4.666,4.666,0,0,1,1.051,1.438A4.537,4.537,0,0,1,87.141,166.627Zm-9.223,3.343,4.425-.284a2.681,2.681,0,0,0,1.041-.278,2.763,2.763,0,0,0,.841-.64,2.835,2.835,0,0,0,.544-.914,2.718,2.718,0,0,0,.151-1.107,2.629,2.629,0,0,0-.276-1.044,2.554,2.554,0,0,0-.632-.8,2.608,2.608,0,0,0-.9-.5A2.992,2.992,0,0,0,82,164.274l-4.425.284Z" transform="translate(36.019 -66.419)" fill="#1a1818"/>
        <path id="Path_117" data-name="Path 117" d="M87.055,172.708a4.61,4.61,0,0,0,.66,1.433,3.945,3.945,0,0,0,1.026,1.022,3.52,3.52,0,0,0,1.315.54,3.87,3.87,0,0,0,1.524-.023,6.2,6.2,0,0,0,1.33-.431,3.433,3.433,0,0,0,1.049-.727,2.531,2.531,0,0,0,.615-1.041,2.784,2.784,0,0,0,.022-1.376,1.586,1.586,0,0,0-.613-.991,3.874,3.874,0,0,0-1.2-.593,10.09,10.09,0,0,0-1.591-.351q-.883-.125-1.8-.271t-1.822-.361a6.934,6.934,0,0,1-1.646-.61,4.385,4.385,0,0,1-1.287-1.027,3.488,3.488,0,0,1-.74-1.608,3.924,3.924,0,0,1,.028-1.854,3.834,3.834,0,0,1,.831-1.526,5.053,5.053,0,0,1,1.524-1.14,8.409,8.409,0,0,1,2.106-.712,7.269,7.269,0,0,1,1.88-.161,5.3,5.3,0,0,1,1.531.306,4.291,4.291,0,0,1,1.2.662,4.967,4.967,0,0,1,.9.914,5.646,5.646,0,0,1,.642,1.062,6.613,6.613,0,0,1,.406,1.1l-2.219.455a3.856,3.856,0,0,0-.627-1.275,3.162,3.162,0,0,0-.919-.826,3.056,3.056,0,0,0-1.137-.379,3.764,3.764,0,0,0-1.262.05,5.924,5.924,0,0,0-1.135.356,3.3,3.3,0,0,0-.938.592,2.2,2.2,0,0,0-.572.836,1.921,1.921,0,0,0-.063,1.091,1.741,1.741,0,0,0,.625,1.041,3.868,3.868,0,0,0,1.2.615,9.717,9.717,0,0,0,1.594.356c.587.083,1.187.173,1.794.268s1.214.211,1.814.351a6.793,6.793,0,0,1,1.646.605,4.423,4.423,0,0,1,1.287,1.026,3.554,3.554,0,0,1,.743,1.621,4.439,4.439,0,0,1-.032,2.058,4.325,4.325,0,0,1-.9,1.726,5.585,5.585,0,0,1-1.631,1.3,8.09,8.09,0,0,1-2.243.8,6.388,6.388,0,0,1-2.276.057,6.048,6.048,0,0,1-2.121-.745,5.931,5.931,0,0,1-1.712-1.511,5.766,5.766,0,0,1-1.036-2.249Z" transform="translate(41.689 -67.331)" fill="#1a1818"/>
        <path id="Path_118" data-name="Path 118" d="M107.99,160.551q.693,3.137,1.368,6.224t1.381,6.217l-1.9,1.046L97.529,161.949l2.036-1.122,8.237,8.915q-.646-3.035-1.27-6.026t-1.275-6.026l1.759-.968,8.764,8.483-3.062-11.627,2.016-1.109,4.2,16.009-1.888,1.039Z" transform="translate(50.781 -72.91)" fill="#1a1818"/>
        <path id="Path_119" data-name="Path 119" d="M111.66,149.911,126.125,159l-1.864,1.448-4.292-2.713-4.942,3.842,1.559,4.836-1.87,1.455-5.2-16.29Zm.524,2.926L114.4,159.6l3.787-2.944Z" transform="translate(58.723 -74.605)" fill="#1a1818"/>
        <path id="Path_120" data-name="Path 120" d="M125.1,145.05a4.78,4.78,0,0,1,1.162,1.79,4.462,4.462,0,0,1,.224,2.176,2.5,2.5,0,0,1,.981-.216,2.575,2.575,0,0,1,.9.158,3.273,3.273,0,0,1,.821.441,6.235,6.235,0,0,1,.74.622l1.694,1.641a3.265,3.265,0,0,0,.861.58,6.389,6.389,0,0,0,1.087.407l-1.664,1.722a2.423,2.423,0,0,1-.535-.189,3.9,3.9,0,0,1-.485-.281,4.7,4.7,0,0,1-.409-.311c-.125-.1-.233-.2-.319-.283l-1.775-1.722a2.406,2.406,0,0,0-.675-.457,1.937,1.937,0,0,0-.821-.173,2.294,2.294,0,0,0-.914.219,3.263,3.263,0,0,0-.968.723l-3.084,3.188,4.8,4.648-1.538,1.589-11.524-11.17,4.62-4.776a5.18,5.18,0,0,1,1.78-1.245,4.793,4.793,0,0,1,1.862-.367,4.682,4.682,0,0,1,1.744.357A4.541,4.541,0,0,1,125.1,145.05Zm-4.575,8.676,3.084-3.187a2.713,2.713,0,0,0,.582-.9,2.783,2.783,0,0,0-.022-2.081,2.684,2.684,0,0,0-.633-.921,2.63,2.63,0,0,0-.908-.588,2.574,2.574,0,0,0-1-.166,2.605,2.605,0,0,0-1.007.239,2.9,2.9,0,0,0-.9.65l-3.084,3.187Z" transform="translate(61.464 -78.676)" fill="#1a1818"/>
        <path id="Path_121" data-name="Path 121" d="M129.741,138.211a4.753,4.753,0,0,1,1.4,1.614,4.425,4.425,0,0,1,.522,2.123,2.5,2.5,0,0,1,.944-.352,2.651,2.651,0,0,1,.918.033,3.3,3.3,0,0,1,.873.321,6.623,6.623,0,0,1,.82.515l1.905,1.388a3.117,3.117,0,0,0,.931.456,6.626,6.626,0,0,0,1.135.254l-1.41,1.933a2.446,2.446,0,0,1-.557-.11,3.755,3.755,0,0,1-.519-.213c-.163-.08-.313-.165-.451-.249s-.254-.166-.352-.238l-2-1.458a2.365,2.365,0,0,0-.735-.361,1.91,1.91,0,0,0-.836-.055,2.224,2.224,0,0,0-.876.342,3.219,3.219,0,0,0-.854.849l-2.612,3.586,5.394,3.938-1.3,1.789-12.96-9.464,3.912-5.373a5.189,5.189,0,0,1,1.589-1.48,4.754,4.754,0,0,1,1.792-.622,4.66,4.66,0,0,1,1.779.11A4.537,4.537,0,0,1,129.741,138.211Zm-3.325,9.23,2.612-3.587a2.711,2.711,0,0,0,.451-.974,2.757,2.757,0,0,0,.045-1.056,2.834,2.834,0,0,0-.354-1.006,2.775,2.775,0,0,0-.756-.825,2.634,2.634,0,0,0-.979-.454,2.589,2.589,0,0,0-1.982.351,2.9,2.9,0,0,0-.8.768l-2.613,3.586Z" transform="translate(65.086 -82.931)" fill="#1a1818"/>
        <path id="Path_122" data-name="Path 122" d="M126.331,131.532l16.913,2.412-1.112,2.081-5.029-.731-2.954,5.521,3.395,3.779-1.119,2.091-11.374-12.764Zm1.669,2.46,4.778,5.276,2.262-4.229Z" transform="translate(69.012 -86.779)" fill="#1a1818"/>
        <path id="Path_123" data-name="Path 123" d="M128.416,130.39l14.5-2.706-11.944-4.327.755-2.08,15.093,5.466-.913,2.505L131.4,131.955l11.954,4.329-.755,2.078L127.5,132.9Z" transform="translate(70.636 -93.572)" fill="#1a1818"/>
        <path id="Path_124" data-name="Path 124" d="M132.774,113.152l1.955.4-1.034,5.035,13.765,2.829-.447,2.174-13.765-2.828-1.039,5.044-1.955-.4Z" transform="translate(72.458 -98.953)" fill="#1a1818"/>
        <path id="Path_125" data-name="Path 125" d="M139.779,112.1l-7.286-4.751.155-2.514,9.268,6.34,6.4.4-.136,2.218-6.4-.4-9.976,5.137.155-2.512Z" transform="translate(73.484 -104.461)" fill="#1a1818"/>
      </g>
      <path id="Path_126" data-name="Path 126" d="M142.018,54.741c-16.444-8.477-28.434-18.524-48.209-18.524-18.449,0-24.283,9.419-39.9,16.862l-6.947,154.6,47.676-26.6,54.028,26.6Z" transform="translate(31.109 -26.243)" fill="#1a1818"/>
      <path id="Path_127" data-name="Path 127" d="M150.536,49.511A119.963,119.963,0,0,0,44.143,47.835v155.69l52.365-22.442,54.028,22.442Z" transform="translate(29.24 -26.243)" fill="orange"/>
      <path id="Path_128" data-name="Path 128" d="M102.16,129.191a37.194,37.194,0,0,1-49.385-35.13m59.349-33.491h-6.018M61.07,85.941V52.693m50.58,41.369a21.695,21.695,0,0,0-29.2-20.351" transform="translate(34.958 -15.329)" fill="none" stroke="#5a5b5e" stroke-width="1.662" style="mix-blend-mode: multiply;isolation: isolate"/>
      <path id="Path_129" data-name="Path 129" d="M88.528,129.259A33.63,33.63,0,0,1,54.936,95.665h8.312a25.277,25.277,0,1,0,8.871-19.232c-.6.514-1.19,1.067-1.751,1.644L63.23,85.43V50.272h49.383v8.312H71.542v8.1a33.593,33.593,0,1,1,16.986,62.576Z" transform="translate(36.389 -16.933)" fill="#1a1818"/>
      <text id="YEAR" transform="translate(78.073 143.132)" fill="#1a1818" font-size="34" font-family="AvenirNext-Medium, Avenir Next" font-weight="500"><tspan x="0" y="0">YEAR</tspan></text>
    </g>
  </g>
</svg>
